<?xml version="1.0" encoding="UTF-8"?>
<svg width="20px" height="20px" viewBox="0 0 20 20" version="1.1" xmlns="http://www.w3.org/2000/svg" xmlns:xlink="http://www.w3.org/1999/xlink">
    <!-- Generator: Sketch 48.2 (47327) - http://www.bohemiancoding.com/sketch -->
    <title>Group 6</title>
    <desc>Created with Sketch.</desc>
    <defs></defs>
    <g id="sprites" stroke="none" stroke-width="1" fill="none" fill-rule="evenodd" transform="translate(-81.000000, -70.000000)">
        <g id="Page-1-Copy-12" transform="translate(81.000000, 70.000000)" fill="#FFFFFF">
            <g id="Group-6">
                <path d="M13.7021333,10.6873556 C14.0381333,11.0129111 14.2085778,11.4153556 14.2048,11.8900222 C14.1992444,12.5978 13.9756889,13.2275778 13.5308,13.7744667 C13.1961333,14.1860222 12.7448,14.3980222 12.2305778,14.4918 C11.6872444,14.5911333 11.1461333,14.5473556 10.6052444,14.4731333 C10.5154667,14.4609111 10.4263556,14.4440222 10.3372444,14.4282444 C10.1688,14.3982444 10.1470222,14.4086889 10.1054667,14.5718 C9.98857778,15.0300222 9.87546667,15.4893556 9.75946667,15.9478 C9.73902222,16.0282444 9.71213333,16.1071333 9.68302222,16.2040222 C9.29524444,16.1389111 8.93324444,16.0273556 8.54791111,15.9340222 C8.56391111,15.8395778 8.57191111,15.7638 8.58968889,15.6906889 C8.70235556,15.2313556 8.81791111,14.7726889 8.9308,14.3133556 C8.97057778,14.1518 8.96302222,14.1369111 8.80768889,14.0922444 C8.64591111,14.0458 8.4828,14.0033556 8.31902222,13.9638 C8.18502222,13.9313556 8.16146667,13.9440222 8.12702222,14.0789111 C8.00835556,14.5433556 7.89346667,15.0084667 7.77657778,15.4731333 C7.75924444,15.5418 7.73835556,15.6093556 7.71391111,15.6960222 C7.6548,15.6933556 7.59724444,15.6995778 7.54413333,15.6871333 C7.27946667,15.6240222 7.01524444,15.5580222 6.75191111,15.4893556 C6.56613333,15.4409111 6.55746667,15.4244667 6.60524444,15.2300222 C6.71991111,14.7642444 6.8368,14.2991333 6.95168889,13.8333556 C6.96835556,13.7658 6.97857778,13.6969111 6.99546667,13.6095778 C6.26213333,13.4229111 5.54391111,13.2402444 4.80702222,13.0524667 C4.8368,12.9649111 4.85302222,12.9038 4.87768889,12.8462444 C5.01346667,12.5304667 5.15035556,12.2151333 5.2888,11.9004667 C5.35857778,11.7420222 5.36591111,11.7389111 5.53991111,11.7802444 C5.71013333,11.8206889 5.87968889,11.8644667 6.04946667,11.9064667 C6.08724444,11.9158 6.12502222,11.9258 6.16324444,11.9313556 C6.46768889,11.9758 6.59902222,11.8958 6.67613333,11.5960222 C6.82302222,11.0246889 6.96124444,10.4513556 7.10368889,9.87891111 C7.34791111,8.8978 7.59257778,7.91668889 7.83702222,6.93557778 C7.84657778,6.8978 7.85813333,6.86046667 7.86368889,6.82224444 C7.91102222,6.50602222 7.78924444,6.29602222 7.48013333,6.19135556 C7.29657778,6.12913333 7.10546667,6.08891111 6.91791111,6.03868889 C6.81257778,6.01046667 6.70746667,5.9818 6.5808,5.94757778 C6.66057778,5.52957778 6.76502222,5.13491111 6.88213333,4.72068889 C7.62791111,4.90513333 8.34813333,5.08335556 9.0868,5.26602222 C9.16257778,4.96891111 9.23346667,4.69468889 9.30257778,4.42002222 C9.36924444,4.15624444 9.43191111,3.8918 9.5008,3.62868889 C9.54035556,3.47735556 9.5588,3.46957778 9.72302222,3.50868889 C9.97502222,3.56891111 10.2270222,3.6298 10.4783556,3.69268889 C10.6930222,3.74646667 10.7014667,3.75913333 10.6494667,3.97002222 C10.5439111,4.39802222 10.4356889,4.82535556 10.3292444,5.25291111 C10.3105778,5.3278 10.2941333,5.40335556 10.2723556,5.49668889 C10.5212444,5.60713333 10.7854667,5.62868889 11.0585778,5.70713333 C11.0861333,5.62513333 11.1148,5.5558 11.1330222,5.4838 C11.2405778,5.05646667 11.3450222,4.62824444 11.4525778,4.20068889 C11.4710222,4.12713333 11.4988,4.05602222 11.5303556,3.95913333 C11.9090222,4.05224444 12.2714667,4.14157778 12.6541333,4.23557778 C12.6414667,4.32446667 12.6370222,4.3998 12.6194667,4.47202222 C12.5108,4.91891111 12.3988,5.36513333 12.2890222,5.8118 C12.2303556,6.05091111 12.2312444,6.05091111 12.4708,6.14268889 C12.9150222,6.31268889 13.3414667,6.51557778 13.7132444,6.81802222 C14.0656889,7.10468889 14.3314667,7.45357778 14.4092444,7.91002222 C14.5385778,8.67157778 14.2910222,9.58002222 13.5974667,9.9978 C13.4485778,10.0875778 13.2836889,10.1502444 13.1299111,10.2238 C13.3221333,10.3778 13.5268,10.5173556 13.7021333,10.6873556 M10.3165778,0.0544666667 C4.78124444,-0.134866667 0.120577778,4.16691111 0.00235555556,9.82202222 C-0.115422222,15.4484667 4.35546667,19.9044667 9.81213333,19.9984667 C15.3045778,20.0931333 19.9512444,15.6780222 19.9505778,10.0333556 C19.9756889,4.78891111 15.8483556,0.2438 10.3165778,0.0544666667" id="Fill-4"></path>
            </g>
        </g>
    </g>
</svg>